<svg xmlns="http://www.w3.org/2000/svg" viewBox="0 0 512 512" role="img" aria-labelledby="title desc">
  <title id="title">IsoAmplar Plot Analysis T</title>
  <desc id="desc">A clean amplification curve above a threshold line in a rounded square.</desc>
  <defs>
    <linearGradient id="a-bg" x1="82" y1="42" x2="430" y2="470" gradientUnits="userSpaceOnUse">
      <stop offset="0" stop-color="#ffffff"/>
      <stop offset="1" stop-color="#edf4fb"/>
    </linearGradient>
    <linearGradient id="a-curve" x1="100" y1="356" x2="414" y2="132" gradientUnits="userSpaceOnUse">
      <stop offset="0" stop-color="#0f7895"/>
      <stop offset="0.5" stop-color="#1479c9"/>
      <stop offset="1" stop-color="#4eb3d8"/>
    </linearGradient>
    <filter id="a-shadow" x="-20%" y="-20%" width="140%" height="140%">
      <feDropShadow dx="0" dy="10" stdDeviation="18" flood-color="#152238" flood-opacity="0.16"/>
    </filter>
  </defs>
  <rect x="48" y="48" width="416" height="416" rx="92" fill="url(#a-bg)" filter="url(#a-shadow)"/>
  <rect x="92" y="96" width="328" height="300" rx="32" fill="#ffffff" stroke="#ced8e6" stroke-width="14"/>
  <path d="M126 320H386" fill="none" stroke="#d8792c" stroke-width="18" stroke-linecap="round" stroke-dasharray="28 24"/>
  <path d="M126 334C156 334 177 332 194 324C214 315 229 296 242 266C257 231 274 190 310 168C333 154 361 149 386 149" fill="none" stroke="url(#a-curve)" stroke-width="34" stroke-linecap="round"/>
  <path d="M126 334C156 334 177 332 194 324C214 315 229 296 242 266C257 231 274 190 310 168C333 154 361 149 386 149" fill="none" stroke="#ffffff" stroke-width="12" stroke-linecap="round" opacity="0.72"/>
  <circle cx="386" cy="149" r="20" fill="#1479c9" stroke="#ffffff" stroke-width="10"/>
</svg>
